<svg width="27" height="15" viewBox="0 0 27 15" fill="none" xmlns="http://www.w3.org/2000/svg">
<path fill-rule="evenodd" clip-rule="evenodd" d="M5.37787 1.65271C5.65401 1.65271 5.87787 1.87657 5.87787 2.15271V7.50262C5.87787 7.77877 5.65401 8.00262 5.37787 8.00262C5.10173 8.00262 4.87787 7.77877 4.87787 7.50262V2.15271C4.87787 1.87657 5.10173 1.65271 5.37787 1.65271Z" fill="#EDEDED"/>
<path fill-rule="evenodd" clip-rule="evenodd" d="M9.31165 1.65271C9.58779 1.65271 9.81165 1.87657 9.81165 2.15271V7.50262C9.81165 7.77877 9.58779 8.00262 9.31165 8.00262C9.0355 8.00262 8.81165 7.77877 8.81165 7.50262V2.15271C8.81165 1.87657 9.0355 1.65271 9.31165 1.65271Z" fill="#EDEDED"/>
<path fill-rule="evenodd" clip-rule="evenodd" d="M13.2454 1.65271C13.5216 1.65271 13.7454 1.87657 13.7454 2.15271V7.50262C13.7454 7.77877 13.5216 8.00262 13.2454 8.00262C12.9693 8.00262 12.7454 7.77877 12.7454 7.50262V2.15271C12.7454 1.87657 12.9693 1.65271 13.2454 1.65271Z" fill="#EDEDED"/>
<path fill-rule="evenodd" clip-rule="evenodd" d="M17.1792 1.65271C17.4553 1.65271 17.6792 1.87657 17.6792 2.15271V7.50262C17.6792 7.77877 17.4553 8.00262 17.1792 8.00262C16.9031 8.00262 16.6792 7.77877 16.6792 7.50262V2.15271C16.6792 1.87657 16.9031 1.65271 17.1792 1.65271Z" fill="#EDEDED"/>
<path fill-rule="evenodd" clip-rule="evenodd" d="M21.113 1.65271C21.3891 1.65271 21.613 1.87657 21.613 2.15271V7.50262C21.613 7.77877 21.3891 8.00262 21.113 8.00262C20.8368 8.00262 20.613 7.77877 20.613 7.50262V2.15271C20.613 1.87657 20.8368 1.65271 21.113 1.65271Z" fill="#EDEDED"/>
<path fill-rule="evenodd" clip-rule="evenodd" d="M26.0302 11.661L0.500002 11.6611C0.22386 11.6611 1.2517e-06 11.4373 0 11.1611C-1.19209e-06 10.885 0.223855 10.6611 0.499998 10.6611L26.0302 10.661C26.3063 10.661 26.5302 10.8849 26.5302 11.161C26.5302 11.4372 26.3063 11.661 26.0302 11.661Z" fill="#EDEDED"/>
<path fill-rule="evenodd" clip-rule="evenodd" d="M23.5667 1H3.18665V8.36108H23.5667V1ZM3.18665 0C2.63436 0 2.18665 0.447715 2.18665 1V8.36108C2.18665 8.91337 2.63436 9.36108 3.18665 9.36108H23.5667C24.1189 9.36108 24.5667 8.91337 24.5667 8.36108V1C24.5667 0.447715 24.1189 0 23.5667 0H3.18665Z" fill="#EDEDED"/>
<path fill-rule="evenodd" clip-rule="evenodd" d="M3.96175 13.6227C4.36538 13.6227 4.6926 13.2955 4.6926 12.8919C4.6926 12.4882 4.36538 12.161 3.96175 12.161C3.55811 12.161 3.2309 12.4882 3.2309 12.8919C3.2309 13.2955 3.55811 13.6227 3.96175 13.6227ZM3.96175 14.6227C4.91767 14.6227 5.6926 13.8478 5.6926 12.8919C5.6926 11.9359 4.91767 11.161 3.96175 11.161C3.00582 11.161 2.2309 11.9359 2.2309 12.8919C2.2309 13.8478 3.00582 14.6227 3.96175 14.6227Z" fill="#EDEDED"/>
<path fill-rule="evenodd" clip-rule="evenodd" d="M7.10872 13.6227C7.51236 13.6227 7.83957 13.2955 7.83957 12.8919C7.83957 12.4882 7.51236 12.161 7.10872 12.161C6.70508 12.161 6.37787 12.4882 6.37787 12.8919C6.37787 13.2955 6.70508 13.6227 7.10872 13.6227ZM7.10872 14.6227C8.06464 14.6227 8.83957 13.8478 8.83957 12.8919C8.83957 11.9359 8.06464 11.161 7.10872 11.161C6.1528 11.161 5.37787 11.9359 5.37787 12.8919C5.37787 13.8478 6.1528 14.6227 7.10872 14.6227Z" fill="#EDEDED"/>
<path fill-rule="evenodd" clip-rule="evenodd" d="M20.0509 13.6227C20.4545 13.6227 20.7817 13.2955 20.7817 12.8919C20.7817 12.4882 20.4545 12.161 20.0509 12.161C19.6472 12.161 19.32 12.4882 19.32 12.8919C19.32 13.2955 19.6472 13.6227 20.0509 13.6227ZM20.0509 14.6227C21.0068 14.6227 21.7817 13.8478 21.7817 12.8919C21.7817 11.9359 21.0068 11.161 20.0509 11.161C19.0949 11.161 18.32 11.9359 18.32 12.8919C18.32 13.8478 19.0949 14.6227 20.0509 14.6227Z" fill="#EDEDED"/>
<path fill-rule="evenodd" clip-rule="evenodd" d="M22.8438 13.6227C23.2475 13.6227 23.5747 13.2955 23.5747 12.8919C23.5747 12.4882 23.2475 12.161 22.8438 12.161C22.4402 12.161 22.113 12.4882 22.113 12.8919C22.113 13.2955 22.4402 13.6227 22.8438 13.6227ZM22.8438 14.6227C23.7997 14.6227 24.5747 13.8478 24.5747 12.8919C24.5747 11.9359 23.7997 11.161 22.8438 11.161C21.8879 11.161 21.113 11.9359 21.113 12.8919C21.113 13.8478 21.8879 14.6227 22.8438 14.6227Z" fill="#EDEDED"/>
</svg>
