<svg width="41" height="14" viewBox="0 0 41 14" fill="none" xmlns="http://www.w3.org/2000/svg">
<path d="M17.1071 9.47131H1.23486C0.884154 9.47131 0.599976 9.14034 0.599976 8.73209V1.33973C0.599976 0.931474 0.884154 0.600409 1.23486 0.600409H24.7259C25.0766 0.600409 25.3608 0.931474 25.3608 1.33973V9.47131H20.9169" stroke="#EDEDED" stroke-width="1.2" stroke-miterlimit="10" stroke-linecap="round" stroke-linejoin="round"/>
<path d="M38.0576 10.9493H39.3274C39.678 10.9493 39.9623 10.6184 39.9623 10.2101V7.25312C39.9623 6.84486 39.678 6.51389 39.3274 6.51389H34.2482C33.8976 6.51389 33.6133 6.18291 33.6133 5.77466V2.81775C33.6133 1.5929 32.7606 0.599983 31.7087 0.599983H28.5342C28.1835 0.599983 27.8993 0.930956 27.8993 1.3393V7.99243" stroke="#EDEDED" stroke-width="1.2" stroke-miterlimit="10" stroke-linecap="round" stroke-linejoin="round"/>
<path d="M31.0729 3.5571V7.99255" stroke="#EDEDED" stroke-width="1.2" stroke-miterlimit="10" stroke-linecap="round" stroke-linejoin="round"/>
<path d="M27.8993 3.55701H34.7333C35.2143 3.55701 35.6539 3.87341 35.869 4.37425L36.7878 6.51392" stroke="#EDEDED" stroke-width="1.2" stroke-miterlimit="10" stroke-linecap="round" stroke-linejoin="round"/>
<path d="M38.0563 10.9495C38.0563 11.766 37.4878 12.428 36.7865 12.428C36.0852 12.428 35.5167 11.766 35.5167 10.9495C35.5167 10.133 36.0852 9.47107 36.7865 9.47107C37.4878 9.47107 38.0563 10.133 38.0563 10.9495Z" stroke="#EDEDED" stroke-width="1.2" stroke-miterlimit="10" stroke-linecap="round" stroke-linejoin="round"/>
<path d="M26.6297 10.9495C26.6297 11.766 26.0612 12.428 25.3599 12.428C24.6587 12.428 24.0901 11.766 24.0901 10.9495C24.0901 10.133 24.6587 9.47107 25.3599 9.47107C26.0612 9.47107 26.6297 10.133 26.6297 10.9495Z" stroke="#EDEDED" stroke-width="1.2" stroke-miterlimit="10" stroke-linecap="round" stroke-linejoin="round"/>
<path d="M22.186 10.9495C22.186 11.766 21.6175 12.428 20.9163 12.428C20.2149 12.428 19.6465 11.766 19.6465 10.9495C19.6465 10.133 20.2149 9.47107 20.9163 9.47107C21.6175 9.47107 22.186 10.133 22.186 10.9495Z" stroke="#EDEDED" stroke-width="1.2" stroke-miterlimit="10" stroke-linecap="round" stroke-linejoin="round"/>
<path d="M10.1222 10.9495C10.1222 11.766 9.55373 12.428 8.85247 12.428C8.15122 12.428 7.5827 11.766 7.5827 10.9495C7.5827 10.133 8.15122 9.47107 8.85247 9.47107C9.55373 9.47107 10.1222 10.133 10.1222 10.9495Z" stroke="#EDEDED" stroke-width="1.2" stroke-miterlimit="10" stroke-linecap="round" stroke-linejoin="round"/>
<path d="M5.67608 10.9495C5.67608 11.766 5.10756 12.428 4.40631 12.428C3.70497 12.428 3.13654 11.766 3.13654 10.9495C3.13654 10.133 3.70497 9.47107 4.40631 9.47107C5.10756 9.47107 5.67608 10.133 5.67608 10.9495Z" stroke="#EDEDED" stroke-width="1.2" stroke-miterlimit="10" stroke-linecap="round" stroke-linejoin="round"/>
<path d="M32.9769 10.9493H26.6279" stroke="#EDEDED" stroke-width="1.2" stroke-miterlimit="10" stroke-linecap="round" stroke-linejoin="round"/>
<path d="M25.3603 7.99243H31.0744V10.9493" stroke="#EDEDED" stroke-width="1.2" stroke-miterlimit="10" stroke-linecap="round" stroke-linejoin="round"/>
</svg>
