<svg width="14" height="18" viewBox="0 0 14 18" fill="none" xmlns="http://www.w3.org/2000/svg">
<path d="M6.92499 10C6.30692 10 5.70274 9.81672 5.18883 9.47334C4.67493 9.12997 4.27439 8.64191 4.03787 8.07089C3.80134 7.49987 3.73946 6.87154 3.86004 6.26534C3.98061 5.65915 4.27824 5.10233 4.71528 4.66529C5.15232 4.22825 5.70914 3.93063 6.31533 3.81005C6.92152 3.68947 7.54986 3.75135 8.12088 3.98788C8.6919 4.2244 9.17995 4.62494 9.52333 5.13884C9.86671 5.65275 10.05 6.25694 10.05 6.875C10.049 7.7035 9.71944 8.49778 9.1336 9.08361C8.54777 9.66945 7.75349 9.99901 6.92499 10ZM6.92499 5C6.55415 5 6.19164 5.10997 5.8833 5.316C5.57495 5.52202 5.33463 5.81486 5.19272 6.15747C5.0508 6.50008 5.01367 6.87708 5.08602 7.2408C5.15836 7.60451 5.33694 7.9386 5.59916 8.20083C5.86139 8.46305 6.19548 8.64163 6.5592 8.71397C6.92291 8.78632 7.29991 8.74919 7.64252 8.60728C7.98513 8.46536 8.27797 8.22504 8.484 7.9167C8.69002 7.60835 8.79999 7.24584 8.79999 6.875C8.79949 6.37787 8.60179 5.90125 8.25027 5.54972C7.89874 5.1982 7.42212 5.0005 6.92499 5Z" fill="#FFEE00"/>
<path d="M6.875 17.5L1.6025 11.2819C1.52924 11.1885 1.45674 11.0945 1.385 11C0.484821 9.81337 -0.00167152 8.36443 4.31511e-06 6.875C4.31511e-06 5.05164 0.724333 3.30295 2.01365 2.01364C3.30296 0.724328 5.05164 0 6.875 0C8.69837 0 10.4471 0.724328 11.7364 2.01364C13.0257 3.30295 13.75 5.05164 13.75 6.875C13.7515 8.36372 13.2652 9.81193 12.3656 10.9981L12.365 11C12.365 11 12.1775 11.2463 12.1494 11.2794L6.875 17.5ZM2.38313 10.2469C2.38313 10.2469 2.52875 10.4394 2.56188 10.4806L6.875 15.5675L11.1938 10.4737C11.2213 10.4394 11.3675 10.2456 11.3681 10.245C12.1039 9.27572 12.5015 8.0919 12.5 6.875C12.5 5.38316 11.9074 3.95242 10.8525 2.89752C9.79759 1.84263 8.36685 1.25 6.875 1.25C5.38316 1.25 3.95242 1.84263 2.89753 2.89752C1.84264 3.95242 1.25 5.38316 1.25 6.875C1.24846 8.09269 1.64653 9.27724 2.38313 10.2469Z" fill="#EDEDED"/>
</svg>
