<svg width="28" height="19" viewBox="0 0 28 19" fill="none" xmlns="http://www.w3.org/2000/svg">
<path d="M6.98276 16.5726C6.98276 17.4603 6.25724 18.1798 5.36208 18.1798C4.46692 18.1798 3.74139 17.4603 3.74139 16.5726C3.74139 15.6848 4.46692 14.9653 5.36208 14.9653C6.25724 14.9653 6.98276 15.6848 6.98276 16.5726Z" stroke="white" stroke-miterlimit="10" stroke-linecap="round" stroke-linejoin="round"/>
<path d="M10.2241 16.5726C10.2241 17.4603 9.49857 18.1798 8.60341 18.1798C7.70825 18.1798 6.98273 17.4603 6.98273 16.5726C6.98273 15.6848 7.70825 14.9653 8.60341 14.9653C9.49857 14.9653 10.2241 15.6848 10.2241 16.5726Z" stroke="white" stroke-miterlimit="10" stroke-linecap="round" stroke-linejoin="round"/>
<path d="M21.893 16.5726C21.893 17.4603 21.1675 18.1798 20.2724 18.1798C19.3772 18.1798 18.6517 17.4603 18.6517 16.5726C18.6517 15.6848 19.3772 14.9653 20.2724 14.9653C21.1675 14.9653 21.893 15.6848 21.893 16.5726Z" stroke="white" stroke-miterlimit="10" stroke-linecap="round" stroke-linejoin="round"/>
<path d="M13.6276 16.5725V1.57149C13.6276 0.979484 14.1111 0.499987 14.708 0.499987H17.031C19.7165 0.499987 21.8931 2.65853 21.8931 5.32174V6.57799C21.8931 8.54717 23.4894 10.1435 25.4586 10.1435C26.3537 10.1435 27.0792 10.863 27.0792 11.7508V15.501C27.0792 16.093 26.5957 16.5725 25.9988 16.5725H21.8931" stroke="white" stroke-miterlimit="10" stroke-linecap="round" stroke-linejoin="round"/>
<path d="M3.74137 16.5725H0.5" stroke="#FFFF00" stroke-miterlimit="10" stroke-linecap="round" stroke-linejoin="round"/>
<path d="M21.8931 10.1434H19.4419C18.1104 10.1434 17.031 9.06405 17.031 7.73255C17.031 6.40106 18.1104 5.32168 19.4419 5.32168H21.8931" stroke="white" stroke-miterlimit="10" stroke-linecap="round" stroke-linejoin="round"/>
<path d="M21.1113 9.33984H19.8809C19.2125 9.33984 18.6707 8.79803 18.6707 8.12968C18.6707 7.46132 19.2125 6.91951 19.8809 6.91951H21.1113" fill="#FFFF00"/>
<path d="M10.2241 5.32178H13.6276" stroke="white" stroke-miterlimit="10" stroke-linecap="round" stroke-linejoin="round"/>
<path d="M13.6276 5.32178H17.031" stroke="white" stroke-miterlimit="10" stroke-linecap="round" stroke-linejoin="round"/>
<path d="M25.4586 13.358H27.0792" stroke="#FFFF00" stroke-miterlimit="10" stroke-linecap="round" stroke-linejoin="round"/>
<path d="M10.7644 10.6792C10.7644 10.9751 10.5225 11.215 10.2241 11.215C9.92576 11.215 9.6839 10.9751 9.6839 10.6792C9.6839 10.3834 9.92576 10.1435 10.2241 10.1435C10.5225 10.1435 10.7644 10.3834 10.7644 10.6792Z" fill="#FFFF00"/>
<path d="M8.60345 0.500046C9.6407 1.52869 10.2241 2.929 10.2241 4.38982V8.26843" stroke="white" stroke-miterlimit="10" stroke-linecap="round" stroke-linejoin="round"/>
<path d="M10.2241 13.0901C10.2241 15.0134 11.7832 16.5725 13.7065 16.5725H18.6517" stroke="white" stroke-miterlimit="10" stroke-linecap="round" stroke-linejoin="round"/>
</svg>
